<svg xmlns="http://www.w3.org/2000/svg" width="16" height="16" fill="none"><path fill="#E62E05" d="M11.422 4.342c0 .11-.311 2.352-1.245 3.271C11.422 2.105 6.755 1 6.755 1s.716 2.754-.31 4.077c-.063-1.506-.779-2.425-.779-2.425-.529 2.72-2.333 5.071-2.333 6.835C3.333 12.537 5.417 15 8 15c2.582 0 4.355-2.21 4.666-5.513 0-2.205 0-3.698-1.244-5.145Z"/><path fill="#FEF0ED" d="M9.555 11.447c0 .958-.684 1.71-1.555 1.71-.871 0-1.556-.752-1.556-1.71C6.444 10.49 8 7.171 8 7.171s1.555 3.318 1.555 4.276Z"/></svg>